<svg width="800" height="600" xmlns="http://www.w3.org/2000/svg">
    <!-- Blue sky with clouds -->
    <rect width="800" height="500" fill="skyblue" />
    <circle cx="100" cy="100" r="50" fill="white" opacity="0.8"/>
    <circle cx="180" cy="100" r="30" fill="white" opacity="0.8"/>
    <circle cx="160" cy="120" r="40" fill="white" opacity="0.8"/>
    <circle cx="300" cy="80" r="40" fill="white" opacity="0.8"/>
    <circle cx="380" cy="80" r="20" fill="white" opacity="0.8"/>
    <circle cx="360" cy="100" r="30" fill="white" opacity="0.8"/>
    <circle cx="600" cy="120" r="50" fill="white" opacity="0.8"/>
    <circle cx="680" cy="120" r="30" fill="white" opacity="0.8"/>
    <circle cx="660" cy="140" r="40" fill="white" opacity="0.8"/>

    <!-- Grass with details -->
    <rect y="450" width="800" height="50" fill="green" />
    <rect y="470" width="800" height="10" fill="darkgreen" />
    <circle cx="50" cy="460" r="5" fill="yellow" />
    <circle cx="150" cy="470" r="8" fill="red" />
    <circle cx="250" cy="460" r="5" fill="yellow" />
    <circle cx="350" cy="470" r="8" fill="red" />
    <circle cx="450" cy="460" r="5" fill="yellow" />
    <circle cx="550" cy="470" r="8" fill="red" />
    <circle cx="650" cy="460" r="5" fill="yellow" />
    <circle cx="750" cy="470" r="8" fill="red" />

    <!-- Sidewalk/Street -->
    <rect y="500" width="800" height="50" fill="gray" />
    
    <!-- Sidewalk details -->
    <g id="sidewalk-lines" stroke="#CCCCCC" stroke-width="4">
        <line x1="0" y1="525" x2="100" y2="525" />
        <line x1="150" y1="525" x2="250" y2="525" />
        <line x1="300" y1="525" x2="400" y2="525" />
        <line x1="450" y1="525" x2="550" y2="525" />
        <line x1="600" y1="525" x2="700" y2="525" />
        <line x1="750" y1="525" x2="800" y2="525" />
    </g>
</svg>
